<?xml version="1.0" encoding="UTF-8" standalone="no"?>
<!-- Created with Inkscape (http://www.inkscape.org/) -->

<svg
   width="391.71112mm"
   height="357.54028mm"
   viewBox="0 0 391.71112 357.54028"
   version="1.1"
   id="svg1"
   inkscape:version="1.3.1 (9b9bdc1480, 2023-11-25, custom)"
   sodipodi:docname="handyboys.svg"
   xmlns:inkscape="http://www.inkscape.org/namespaces/inkscape"
   xmlns:sodipodi="http://sodipodi.sourceforge.net/DTD/sodipodi-0.dtd"
   xmlns="http://www.w3.org/2000/svg"
   xmlns:svg="http://www.w3.org/2000/svg">
  <sodipodi:namedview
     id="namedview1"
     pagecolor="#505050"
     bordercolor="#eeeeee"
     borderopacity="1"
     inkscape:showpageshadow="0"
     inkscape:pageopacity="0"
     inkscape:pagecheckerboard="0"
     inkscape:deskcolor="#d1d1d1"
     inkscape:document-units="mm"
     inkscape:zoom="0.5"
     inkscape:cx="933"
     inkscape:cy="689"
     inkscape:window-width="1920"
     inkscape:window-height="1131"
     inkscape:window-x="0"
     inkscape:window-y="0"
     inkscape:window-maximized="1"
     inkscape:current-layer="layer1"
     showgrid="false" />
  <defs
     id="defs1" />
  <g
     inkscape:label="Layer 1"
     inkscape:groupmode="layer"
     id="layer1"
     transform="translate(114.90961,34.292616)">
    <path
       style="fill:#1c414c;stroke-width:0.264583"
       d="M 129.66988,319.70386 33.567269,315.48863 18.544889,304.63698 3.5225068,293.78531 -18.173326,278.13994 l -21.695831,-15.6454 -27.163886,-19.57371 -27.163888,-19.57375 -10.054169,-7.22609 -10.05416,-7.22608 -0.0874,-0.0638 -0.0874,-0.0638 18.147872,-44.59776 18.147872,-44.59776 11.070119,-27.156267 11.070122,-27.156265 17.200059,-2.477068 17.20006,-2.477069 0.282646,-0.529167 0.282644,-0.529166 6.451907,-16.677169 6.4519095,-16.677169 0.733425,-0.159779 0.733425,-0.15978 43.3689755,-7.058697 43.368975,-7.058694 0.269418,-0.269634 0.26942,-0.269634 4.980064,-14.640277 4.980067,-14.640278 0.265734,-0.271419 0.265737,-0.27142 37.369969,-6.871591 37.36996,-6.87159 0.40966,-7.41e-4 0.40962,-7.41e-4 7.02466,9.260417 7.02469,9.260416 41.23381,54.32778 41.2338,54.327776 6.80617,8.946756 6.80619,8.94675 0.0145,0.57825 0.0146,0.57824 -24.25571,105.21598 -24.25559,105.21598 -1.24709,-0.0438 -1.24709,-0.0438 z m 79.97817,-7.02892 -0.13184,-0.39552 -34.38157,-31.35236 -34.38159,-31.35236 -27.69305,0.0861 -27.693053,0.0861 v 0.40195 0.40196 l 26.105553,21.79581 26.10555,21.79582 10.05417,8.39989 10.05415,8.39991 1.7639,0.0319 1.7639,0.0319 23.10693,0.98735 23.10694,0.98732 1.17594,0.0449 1.17591,0.0448 z m -69.48296,-3.09443 -0.11759,-0.31496 -6.35,-5.24664 -6.35,-5.24663 -6.92061,-5.71715 -6.9206,-5.71714 -47.439941,-1.06849 -47.439936,-1.06847 H 13.995948 9.365483 l 0.177935,0.44098 0.1779375,0.44096 13.7435875,9.80204 13.743588,9.80205 45.245872,1.91524 45.245877,1.91521 2.29305,0.12102 2.29306,0.12099 3.99814,0.068 3.99815,0.068 z m 81.81842,-4.35933 0.7416,-3.26321 13.97574,-60.1486 13.97574,-60.14861 0.30427,-1.34798 0.30427,-1.34798 -12.4937,-14.772 -12.4937,-14.772 -0.37428,-0.23132 -0.37428,-0.23132 -0.15746,0.15746 -0.15745,0.15745 -4.90628,19.36884 -4.90624,19.36885 -11.87588,46.91944 -11.8759,46.91943 0.29432,0.45083 0.29432,0.45082 14.11111,12.86238 14.11112,12.86237 0.38053,0.004 0.38055,0.004 z m -121.97629,-28.6598 v -0.52575 L 84.345824,262.97944 68.684428,249.92326 h -24.026101 -24.0261 l 0.02059,0.61736 0.02058,0.61735 16.280265,12.43541 16.280265,12.43542 4.777618,0.036 4.777618,0.036 16.933331,0.43807 16.933333,0.43807 1.675693,0.0551 1.6757,0.0551 z m -64.911103,-1.54313 v -0.30501 l -41.7159703,-32.03131 -41.7159697,-32.0313 -0.391382,-0.29767 -0.391383,-0.29767 -21.304451,0.74496 -21.304448,0.74496 -0.337659,0.31793 -0.337658,0.31793 0.514047,0.47493 0.514048,0.47493 32.102776,23.11054 32.102776,23.11054 10.583331,7.62677 10.5833329,7.62677 3.175,0.052 3.17499992,0.0519 9.34861008,0.24151 9.3486101,0.24151 8.025694,0.0654 8.025696,0.0654 z m 152.002343,-16.89296 4.01209,-15.78676 4.15713,-16.37281 4.15714,-16.37281 -2.69748,-2.85358 -2.69748,-2.85357 -29.28356,-30.69167 -29.28355,-30.69167 -6.67505,-6.97813 -6.67504,-6.97814 -0.31512,0.31511 -0.3151,0.31511 -2.64662,8.60331 -2.64662,8.6033 -7.93412,25.70284 -7.93413,25.70283 0.10772,0.61447 0.10772,0.61446 10.94513,10.01881 10.94513,10.01881 26.26302,23.9889 26.26301,23.98887 3.71409,3.42863 3.71407,3.42863 0.35276,0.0108 0.35277,0.0109 z m -58.06585,-18.74186 0.31055,-0.31057 -18.57553,-16.96496 -18.575537,-16.96497 -3.236185,0.18178 -3.236184,0.18177 -57.679164,1.92217 -57.679163,1.92217 -1.23472,0.0897 -1.234724,0.0897 v 0.4387 0.43869 l 19.226387,14.85304 19.2263872,14.85305 61.1886678,-0.20987 61.188665,-0.20984 z m -201.7101,-38.52963 21.519444,-0.71953 0.20511,-0.24092 0.20511,-0.24093 2.843284,-7.58472 2.843284,-7.58472 21.95925,-58.14208 21.9592466,-58.142078 -0.3131979,-0.312901 -0.3132005,-0.312899 -5.997223,0.874101 -5.9972202,0.874101 -16.756944,2.278235 -16.756943,2.278232 -0.715806,0.168275 -0.715809,0.168275 -5.777812,14.212146 -5.777812,14.212143 -20.059502,49.32371 -20.059499,49.32371 0.19276,0.3119 0.192766,0.3119 2.900636,-0.16821 2.900637,-0.16821 z m 97.54305,-3.1388 62.265274,-2.11395 1.575633,-0.091 1.575631,-0.091 2.012722,-6.52639 2.012723,-6.52639 8.847057,-28.64608 8.84707,-28.64607 v -0.55844 -0.55843 l -1.6757,0.201 -1.67569,0.20101 -38.27639,3.34918 -38.276386,3.34919 -23.7686347,2.09194 -23.7686373,2.09194 -0.166304,0.1663 -0.166301,0.1663 -11.740221,31.33358 -11.740221,31.33358 -0.24375,0.79375 -0.24375,0.79375 1.170302,7e-5 1.1703,6e-5 z m 185.02932,-29.62577 7.31663,-29.27013 -2.95145,-3.48838 -2.95146,-3.48838 -11.80742,-13.97753 -11.80743,-13.97754 -0.31089,0.3109 -0.31088,0.31089 -8.26958,29.72756 -8.26955,29.72756 0.15197,0.38162 0.15201,0.38162 15.57991,16.31597 15.57991,16.31598 h 0.2908 0.2908 z m 50.18828,-27.76766 5.80539,-25.42863 L 247.60602,90.774069 229.3235,66.655201 218.07839,51.838534 206.83328,37.021868 l -0.40817,-0.09577 -0.40817,-0.09577 -7.50187,26.906879 -7.50183,26.906878 0.005,0.591638 0.005,0.591634 29.01598,34.347713 29.01598,34.34772 2.28468,2.72247 2.28465,2.72246 0.32631,-0.10877 0.32631,-0.10875 z m -97.37314,13.73432 0.34695,-1.32291 14.90178,-53.445836 14.90181,-53.445833 2.76717,-9.877777 2.76717,-9.877776 -8.52831,-11.28889 -8.52832,-11.2888896 -7.23982,-9.6036261 -7.23985,-9.6036263 -0.33652,0.102604 -0.3365,0.102603 -16.32958,52.716301 -16.32959,52.7163 -4.05959,13.151896 -4.0596,13.15191 v 0.46923 0.46924 l 18.18961,19.099 18.18961,19.099 h 0.28831 0.28832 z m -161.4805696,-30.4399 8.9958336,-0.73356 0.490915,-0.25849 0.490914,-0.25849 L 17.83143,104.21171 24.455745,86.057977 20.868291,82.41684 17.28084,78.775702 13.12585,74.871368 8.9708623,70.967031 8.76168,71.17621 8.5525005,71.38539 3.9817917,83.484185 -0.58891973,95.582977 -6.0297346,109.99496 -11.470547,124.40693 v 0.18076 0.18075 l 1.8520808,-0.20944 1.8520834,-0.20944 z m 32.9277396,-2.6844 8.056906,-0.62203 0.509548,-0.37259 0.50955,-0.37259 7.591798,-22.04487 7.591798,-22.044866 8.977162,-26.193157 8.977161,-26.193159 v -0.35337 -0.353367 l -0.79375,0.0063 -0.79375,0.0063 -37.686035,6.135518 -37.68603206,6.135516 -0.1579589,0.157961 -0.15795889,0.157959 -4.57330165,11.590282 -4.5732995,11.590282 0.2603504,0.251727 0.2603526,0.251727 9.055346,-1.13961 L 8.5804246,56.385942 22.367436,69.742521 36.15445,83.0991 v 0.153546 0.153546 l -6.876928,18.913898 -6.876926,18.91389 0.219353,0.35492 0.21935,0.35492 1.630492,-0.19511 1.630492,-0.1951 z m 51.419465,-4.54815 29.744445,-2.65925 0.0732,-0.0748 0.0732,-0.0748 4.76602,-15.345829 4.76601,-15.345834 6.17387,-19.931943 6.17387,-19.931943 9.74893,-31.535648 9.74891,-31.535648 -0.28491,-0.244063 -0.2849,-0.244062 -28.04583,5.012326 -28.04583,5.012326 -0.69593,0.13564 -0.695934,0.13564 -0.960789,2.6428555 L 96.87017,-4.9586881 80.8317,41.431591 64.79323,87.821867 59.469673,103.2168 54.146114,118.61173 v 0.21548 0.21549 h 0.843047 0.843044 z"
       id="path8620" />
    <path
       style="fill:#a6bdbb;stroke:#a6bdbb;stroke-width:2.6;fill-opacity:1;stroke-opacity:1"
       d="M 642.23708,570.5 C 645.54981,561.29688 702.51652,396.76596 746.97381,268 797.9716,120.29012 807.20943,94.006596 808.60808,92.63769 809.37364,91.888418 855.9,83.093206 912,73.092772 c 56.1,-10.000433 104.475,-18.683903 107.5,-19.296599 3.7949,-0.768639 5.5,-0.291816 5.5,1.538061 0,1.458631 -8.6318,30.55514 -19.1817,64.658906 C 995.26838,154.09692 974.656,220.7 960.01302,268 945.37004,315.3 919.19556,399.9 901.84748,456 884.49942,512.1 870.2368,558.14034 870.15278,558.31184 870.06874,558.48336 854.25,560.04106 835,561.7734 734.50942,570.81668 642.26386,579 640.81506,579 c -0.90069,0 -0.26079,-3.825 1.42202,-8.5 z"
       id="path1"
       transform="matrix(0.26458333,0,0,0.26458333,-114.90961,-34.292616)" />
    <path
       style="fill:#7d9ba3;fill-opacity:1;stroke:#7d9ba3;stroke-width:2.6;stroke-opacity:1"
       d="m 386.58359,980.75364 c -67.81041,-52.41999 -73.00282,-56.86095 -68,-58.15905 2.97903,-0.77298 107.24801,-4.68241 231.70885,-8.68763 124.46084,-4.00522 227.5946,-7.42278 229.18612,-7.59459 1.59154,-0.1718 21.18512,16.33763 43.54132,36.68763 22.35618,20.35 53.32242,48.51731 68.81386,62.594 15.49144,14.0767 28.46626,26.4517 28.83292,27.5 0.41892,1.1977 -59.0402,1.9071 -160,1.9091 -88.36666,0 -192.16666,0.5658 -230.66666,1.2536 l -70,1.2506 z"
       id="path4"
       transform="matrix(0.26458333,0,0,0.26458333,-114.90961,-34.292616)" />
    <path
       style="fill:#7d9ba3;fill-opacity:1;stroke:#7d9ba3;stroke-width:2.6;stroke-opacity:1"
       d="M 685.89289,1173.0518 635.78578,1172 574.39289,1125.1075 C 540.6268,1099.3166 513,1077.4916 513,1076.6075 c 0,-0.8841 40.725,-1.5973 90.5,-1.5848 l 90.5,0.023 55,46.0681 c 30.25,25.3375 56.775,47.8273 58.94444,49.9774 3.91504,3.8801 3.66154,3.9059 -34,3.461 -20.86944,-0.2464 -60.49264,-0.9214 -88.05155,-1.5 z"
       id="path5"
       transform="matrix(0.26458333,0,0,0.26458333,-114.90961,-34.292616)" />
    <path
       style="fill:#7d9ba3;fill-opacity:1;stroke:#7d9ba3;stroke-width:2.6;stroke-opacity:1"
       d="m 1129,1307.9038 c -28.05,-1.3903 -61.3712,-2.6124 -74.0471,-2.7158 L 1031.9058,1305 911.95289,1204.7729 c -65.97409,-55.1248 -127.75991,-106.6498 -137.30184,-114.5 L 757.30211,1076 l 103.68728,-1.7225 103.68729,-1.7225 124.66162,113.4845 c 68.564,62.4165 127.3444,116.0666 130.6232,119.2225 l 5.9616,5.738 -22.9616,-0.2842 c -12.6288,-0.1564 -45.9115,-1.4218 -73.9615,-2.812 z"
       id="path6"
       transform="matrix(0.26458333,0,0,0.26458333,-114.90961,-34.292616)" />
    <path
       style="fill:#7d9ba3;fill-opacity:1;stroke:#7d9ba3;stroke-width:2.6;stroke-opacity:1"
       d="M 739.54218,1291.2404 575.08437,1284 l -51.88744,-37 -51.88744,-37 21.34525,-0.652 c 23.67798,-0.7232 319.72634,5.0348 351.37548,6.8341 l 20.03022,1.1388 45.96978,37.9877 c 25.28338,20.8932 47.28764,39.271 48.89836,40.8395 4.35102,4.2371 -28.22024,3.5085 -219.3864,-4.9077 z"
       id="path7"
       transform="matrix(0.26458333,0,0,0.26458333,-114.90961,-34.292616)" />
    <path
       style="fill:#7d9ba3;fill-opacity:1;stroke:#7d9ba3;stroke-width:2.6;stroke-opacity:1"
       d="m 443.23686,1167.5026 -30.76314,-0.6096 -53.23686,-38.2541 C 154.09146,981.22876 86.971241,932.25206 88.38368,931.00107 c 0.888976,-0.78736 37.32432,-2.57441 80.96742,-3.97122 l 79.3511,-2.53965 63.6489,48.9251 c 35.0069,26.9088 105.0489,80.6676 155.6489,119.464 50.6,38.7964 93.31786,71.7948 94.92858,73.3298 2.99976,2.8588 -25.28292,3.1644 -119.69172,1.2935 z"
       id="path8"
       transform="matrix(0.26458333,0,0,0.26458333,-114.90961,-34.292616)" />
    <path
       style="fill:#557b87;fill-opacity:1;stroke:#557b87;stroke-width:2.6;stroke-opacity:1"
       d="m 1120.0014,1161.0022 c -0.6791,-1.0988 -69.3572,-64.2475 -152.61807,-140.3304 -83.26083,-76.083 -151.6521,-139.84032 -151.98059,-141.68296 -0.60421,-3.38924 76.96099,-257.72333 79.43973,-260.48061 0.73759,-0.82047 33.78894,32.47953 73.44745,74 C 1181.0112,915.21674 1187.2321,921.88448 1186.1366,926 c -0.5856,2.2 -14.356,56.42238 -30.6007,120.4942 -18.3044,72.1953 -30.4417,116.4964 -31.9179,116.5 -1.31,0 -2.9375,-0.8932 -3.6166,-1.992 z"
       id="path9"
       transform="matrix(0.26458333,0,0,0.26458333,-114.90961,-34.292616)" />
    <path
       style="fill:#557b87;fill-opacity:1;stroke:#557b87;stroke-width:2.6;stroke-opacity:1"
       d="m 1191.0129,867.64704 c -3.7936,-4.20586 -30.0984,-31.93298 -58.4551,-61.6158 C 1104.201,776.3484 1081,750.45822 1081,748.49748 c 0,-2.86454 57.6784,-213.73685 61.0219,-223.09629 1.1227,-3.1426 110.9781,126.07209 110.9781,130.53518 0,3.63725 -51.3261,210.28825 -53.5762,215.71067 -1.3361,3.21958 -2.3219,2.75074 -8.4109,-4 z"
       id="path10"
       transform="matrix(0.26458333,0,0,0.26458333,-114.90961,-34.292616)" />
    <path
       style="fill:#557b87;fill-opacity:1;stroke:#557b87;stroke-width:2.6;stroke-opacity:1"
       d="m 1348,702.5045 c -24.2,-28.78642 -76.7255,-91.0396 -116.7234,-138.34042 -39.9979,-47.3008 -73.1342,-87.07176 -73.6361,-88.37986 -0.7312,-1.9054 54.5255,-204.28447 56.3446,-206.36353 0.2788,-0.31862 25.2656,32.08138 55.5263,72 30.2607,39.91862 65.6073,86.52931 78.5479,103.57931 12.9407,17.05 38.5535,50.8 56.9174,75 l 33.3889,44 -16.6469,73 C 1395.519,751.8912 1394.77,755.00442 1393.347,754.9217 1392.6061,754.87864 1372.2,731.2909 1348,702.5045 Z"
       id="path11"
       transform="matrix(0.26458333,0,0,0.26458333,-114.90961,-34.292616)" />
    <path
       style="fill:#557b87;fill-opacity:1;stroke:#557b87;stroke-width:2.6;stroke-opacity:1"
       d="m 1224,1254.7485 c -24.2,-22.0746 -48.6089,-44.5099 -54.2419,-49.8561 l -10.2419,-9.7205 28.7483,-113.586 c 15.8116,-62.4722 44.2704,-175.00834 63.2419,-250.08021 18.9715,-75.07188 35.1185,-136.49688 35.8822,-136.5 1.0886,-0.004 37.6461,42.52684 93.0498,108.25514 2.3741,2.81653 -3.642,30.74803 -44.1545,204.99997 -25.7968,110.9566 -51.2638,220.8549 -56.5935,244.2185 -5.3297,23.3636 -10.1404,42.4626 -10.6904,42.4421 -0.55,-0.02 -20.8,-18.0982 -45,-40.1729 z"
       id="path12"
       transform="matrix(0.26458333,0,0,0.26458333,-114.90961,-34.292616)" />
    <path
       style="fill:#a6bdbb;fill-opacity:1;stroke:#a6bdbb;stroke-width:2.6;stroke-opacity:1"
       d="m 285.54144,882.3983 c 0.49023,-1.31906 21.00082,-56.06564 45.57908,-121.65906 l 44.68773,-119.26076 14.09588,-1.21311 C 555.74484,625.99287 842.11692,600.80131 848.5,599.92365 c 4.675,-0.64281 8.5,-0.55214 8.5,0.20149 0,0.75362 -12.27724,41.08377 -27.28276,89.62254 C 814.71172,738.28646 796.36374,797.8 788.94392,822 l -13.49056,44 -10.72668,1.48792 C 758.827,868.30628 654.55,872.11946 533,875.96166 c -121.55,3.84218 -227.15373,7.40186 -234.67495,7.91038 -10.10262,0.68304 -13.44211,0.29806 -12.78361,-1.47374 z"
       id="path13"
       transform="matrix(0.26458333,0,0,0.26458333,-114.90961,-34.292616)" />
    <path
       style="fill:#a6bdbb;fill-opacity:1;stroke:#a6bdbb;stroke-width:2.6;stroke-opacity:1"
       d="M 74.46375,844.5 C 143.20085,675.64798 206.58762,519.73583 226.62137,470.23867 243.69528,428.05435 251.07872,412.02639 254,410.80516 c 3.4698,-1.45052 134.74274,-19.96787 164.8346,-23.25155 10.07928,-1.09987 10.72892,-0.91637 9.3187,2.63205 -2.0845,5.24508 -81.39876,215.25056 -138.5374,366.81434 -25.91832,68.75 -47.74925,125.69438 -48.51315,126.54308 -1.16594,1.29536 -143.117964,7.30232 -175.335596,7.41966 L 55.534307,891 Z"
       id="path14"
       transform="matrix(0.26458333,0,0,0.26458333,-114.90961,-34.292616)" />
    <path
       style="fill:#a6bdbb;fill-opacity:1;stroke:#a6bdbb;stroke-width:2.6;stroke-opacity:1"
       d="m 521,586.90356 c 0,-1.15304 11.28735,-33.25178 25.08299,-71.33054 13.79565,-38.07876 24.82065,-70.3457 24.5,-71.70434 C 570.26235,442.51004 547.05,419.26452 519,392.21197 c -43.82533,-42.26691 -51.84408,-49.17713 -57,-49.12013 -3.3,0.0365 -18.6,1.72598 -34,3.75446 -15.4,2.02848 -28.54438,3.11789 -29.20973,2.42092 -0.85296,-0.89349 30.7628,-84.79169 32.98836,-87.54065 0.69813,-0.86232 287.67367,-46.89497 289.05777,-46.36666 0.92232,0.35205 -8.84568,31.24009 -21.70664,68.64009 -12.86098,37.4 -40.79464,118.85 -62.07482,181 -21.2802,62.15 -39.79514,114.21492 -41.14432,115.6998 -1.65534,1.82184 -13.42158,3.59576 -36.18185,5.45494 C 518.73136,589.50362 521,589.45976 521,586.90356 Z"
       id="path15"
       transform="matrix(0.26458333,0,0,0.26458333,-114.90961,-34.292616)" />
    <path
       style="fill:#557b87;fill-opacity:1;stroke:#557b87;stroke-width:2.6;stroke-opacity:1"
       d="m 393.67279,594.4513 c 1.47717,-3.54822 18.71833,-48.94643 38.31367,-100.88493 l 35.62791,-94.43363 13.19282,11.78572 c 7.25604,6.48215 20.28011,18.96016 28.94237,27.72891 l 15.74956,15.94319 -5.04414,14.70472 c -10.42224,30.38304 -43.85972,120.76272 -45.20103,122.17592 -0.76799,0.80916 -17.56431,2.82807 -37.32515,4.48647 -19.76084,1.65839 -38.40672,3.44945 -41.43529,3.98009 -5.48999,0.96194 -5.49844,0.9455 -2.82072,-5.48646 z"
       id="path16"
       transform="matrix(0.26458333,0,0,0.26458333,-114.90961,-34.292616)" />
    <path
       style="fill:#557b87;fill-opacity:1;stroke:#557b87;stroke-width:2.6;stroke-opacity:1"
       d="m 977.77545,644.10712 c -37.2765,-39.1281 -68.02928,-71.89564 -68.33952,-72.81678 -0.52257,-1.55154 149.57467,-488.761425 153.10917,-496.986335 1.2817,-2.982507 13.0791,11.53929 61.1126,75.225475 l 59.5244,78.92146 -59.9028,214.77454 C 1090.3327,561.35146 1060.0413,670.15 1055.9651,685 c -4.0763,14.85 -8.087,27.73104 -8.9128,28.62454 -0.8258,0.89352 -32.0004,-30.38934 -69.27685,-69.51742 z"
       id="path17"
       transform="matrix(0.26458333,0,0,0.26458333,-114.90961,-34.292616)" />
  </g>
</svg>
