<?xml version="1.0" encoding="UTF-8" standalone="no"?>
<svg
   viewBox="0 0 238.485 136.158"
   version="1.1"
   id="svg1"
   xmlns="http://www.w3.org/2000/svg"
   xmlns:svg="http://www.w3.org/2000/svg">
  <defs
     id="defs1" />
  <path
     fill="#fe0000"
     d="m83.527 136.158-.263-.154-2.032-2.02-1.962-2.05-8.027-8.4-8.027-8.401h-.742v18.82l-.007 1.005-.54.018h-3.384l-.819-.01-.012-.821.003-14.6.118-14.622c-.013-.068.038-1.069.045-1.132l.24-.128.282.133.487.414 9.689 10.139 10.11 10.593.295-.098.294-.098.07-9.48.07-9.48-.009-.687.596-.02 1.62.003 1.622.004.63.005.007.4.025 14.809.024 14.808-.012.463-.123.384zm95.177-.686-1.004-.033-1.323-.2-1.322-.199-1.484-.436-1.484-.437-1.824-1.211-1.823-1.211-.895-.832-.894-.831-1.015-1.55-1.015-1.548-.52-1.39-.52-1.39-.296-2.16-.296-2.16.281-2.045.281-2.045 1.053-2.203 1.053-2.203 1.656-1.73 1.656-1.73 1.406-.903 1.406-.903 2.034-.693 2.033-.693 2.8-.009 2.799-.009 1.917.617 1.918.617 1.599 1.033 1.599 1.033 1.547 1.626 1.547 1.626.777 1.468.777 1.468.42 1.427.418 1.427.17 2.041.17 2.042-.45 2.023-.45 2.022-.95 1.918-.951 1.917-1.875 1.852-1.875 1.853-1.985.983-1.984.984-2.04.405-2.039.405zm-.19-4.492 2.135.028 1.304-.44 1.304-.441 1.058-.65 1.058-.649.879-.828.878-.829.884-1.455.883-1.455.326-1.668.326-1.667-.15-1.968-.148-1.968-.69-1.506-.689-1.505-.961-1.174-.962-1.174-1.368-.875-1.368-.875-1.541-.448-1.542-.448-2.153.113-2.153.113-1.712.802-1.713.8-1.356 1.322-1.356 1.32-.598 1.17-.597 1.169-.354 1.323-.353 1.323-.003 1.466-.003 1.465.395 1.52.396 1.518.526 1.032.526 1.031 1.39 1.369 1.391 1.368 1.061.563 1.062.563.926.309.926.308zm51.177 4.374-1.72.119-1.212-.22-1.211-.22-1.116-.569-1.115-.569-1.008-.91-1.008-.912-.8-1.657-.8-1.657-.153-.837-.153-.837-.034-.325.673-.203 1.676-.434 1.677-.434.537-.143.145.709.16 1.008.162 1.008.6.879.599.878.922.49.922.49h2.838l.887-.421.887-.421.735-.964.736-.965.095-1.724.094-1.723-.814-1.119-.815-1.119-2.582-1.208-2.582-1.208-1.407-.716-1.406-.716-1.08-.913-1.078-.913-.623-1.41-.624-1.409v-2.8l.421-1.237.422-1.236 1.153-1.283 1.152-1.282 1.665-.747 1.665-.747 2.274-.014 2.275-.014 1.707.84 1.707.84 1.124 1.383 1.124 1.381.361.392-.513.35-1.532.95-1.53.95-1.115-1.074-1.115-1.073-.578-.295-.578-.296h-2.433l-.878.367-.878.367-.595.836-.595.835v1.842l.725.951.726.952 1.484.647 1.483.648 2.689 1.303 2.688 1.304 1.067 1.212 1.067 1.213.576 1.728.575 1.729-.184 1.889-.183 1.889-.493 1.12-.492 1.12-.988 1.181-.987 1.182-1.874.937-1.873.936zm-227.359-.382-1.638-.004-.676-.017-.016-.422.003-14.465.003-14.466-.008-.5.329-.02 1.638.004 1.638.004.753.001.04.5.133 5.5.132 5.5h12.171l.132-5.5.132-5.5-.006-.492.8-.009 1.6-.004 1.602-.004.553.073.082.562v28.628l-.017.62-.618.015h-3.568l-.404-.025-.024-.636-.132-6.483-.132-6.482H4.663l-.132 6.482-.133 6.483-.01.653-.418.008zm25.651-.017-1.624-.02-.345-.001-.365-.005-.419-.01.467-.952 2.882-6.176 2.881-6.177L34.553 115l3.093-6.615 1.018-2.177 1.165-2.137c.218.01.203-.03.405-.001l.978 1.961 1.488 3.148 1.998 4.498 4.533 10.047 4.533 10.047.47 1.06-.623.012-2.01.077-2.01.076-.307-.003-.375-.82-1.286-2.956-1.287-2.956-.331-.21-.332-.211-5.987-.004-5.986-.004-.268.33-.267.331-1.248 2.778-1.249 2.778-.382.927h-.679zm11.87-11.62h3.805l.157-.255.157-.254-1.62-3.78-1.622-3.781-.397-.624-.398-.623-.211.226-.212.227-1.896 4.168-1.895 4.167.163.264.163.265zm56.884 11.559-5.029.16-.672.005-.013-.83.02-14.365.019-14.365-.02-.431.669-.027 4.895.155 4.894.154 1.884.49 1.884.49 1.423.763 1.424.761 1.476 1.457 1.477 1.456.753 1.19.754 1.191.585 1.727.586 1.726.178 2.242.178 2.243-.403 2.063-.404 2.063-.85 1.725-.849 1.726-1.75 1.767-1.751 1.768-1.6.852-1.598.852-1.566.415-1.566.415zm1.25-4.422 2.19-.006 1.136-.262 1.135-.262 1.188-.558 1.188-.558 1.258-1.132 1.259-1.132.686-1.283.685-1.282.332-1.426.332-1.427-.141-2.065-.142-2.065-.657-1.435-.657-1.435-1.021-1.13-1.021-1.131-.928-.583-.927-.583-1.456-.486-1.455-.487-2.646-.018-2.645-.017-.07 10.053-.07 10.054.128.331.127.332zM126 134.976h-1.596l-.521-.017-.026-1.006-.001-6.037-.001-6.037-4.613-8.061-4.614-8.062-.464-.667 1.026-.01h4.087l.397.462.398.463 2.884 5.099 2.885 5.098.5.018.498.002 2.448-4.528 2.448-4.366.767-1.058.768-1.058 1.974-.068 1.974-.068 1.055-.003-.261.527-.679 1.26-.679 1.262-4.017 6.98-4.018 6.981v12.347l.012.55-1.035-.003zm19.936-.005-3.717.005-.62.006-.015-.64v-29.249l.635-.015 1.997.005 1.998.005 2.353.248 2.354.248 1.405.687 1.406.688.8 1.01.799 1.008.576 1.292.576 1.292-.02 2.019-.02 2.018-.546 1.073-.547 1.072-.269.166-.268.166v.984l.915.565.915.566.71.843.709.843.528 1.193.529 1.192.015 2.117.016 2.117-.596 1.226-.596 1.227-.883 1.032-.884 1.032-1.462.716-1.463.716-1.806.261-1.807.261zm2.853-4.492h2.38l1.314-.715 1.313-.715.423-.807.422-.806.004-1.211.004-1.212-.527-.905-.528-.905-1.13-.626-1.13-.626-2.27-.142-2.27-.141-.357.487-.356.487.004 3.323.004 3.323.16.595.159.596zm-.56-12.764 1.805-.13.692-.452.692-.454.374-.897.375-.897v-1.265l-.001-1.265-.463-.908-.462-.908-1.034-.529-1.034-.529-1.29-.018-1.291-.019-.251.397-.251.397-.001 3.175v3.175l.168.628.168.628zm57.995 17.258-1.638.004-.421.008-.007-.67-.134-6.35-.134-6.35-2.936-5.027-2.935-5.027-1.649-2.86-1.65-2.861-.476-.794.777.012 2.318.077 2.317.076 3.094 5.394 3.094 5.394.217.218.218.217.288-.187.287-.188 1.538-2.646 1.537-2.646 1.43-2.513 1.429-2.514.469-.654.394-.007h3.803l1.063.016-.457.713-1.42 2.48-1.42 2.48-1.391 2.38-1.392 2.382-.604 1.058-.604 1.058-1.287 2.25-1.287 2.248-.053 6.195-.054 6.194.002.428-.688.007zm-71.41-55.047-18.543.15c-.4-.002-.897-.064-1.413-.064l.011-.73-.004-18.294-.004-18.294-.419-.16-.418-.162H74.18l-.295.356-.296.356-.068 18.363-.067 18.364-5.008.072-5.008.072-.432-.007-.01-.435V.472L62.99.05l.674-.004 4.643-.004 4.644-.004.615-.002.02.637v31.58l.36.298.36.299 20.211-.068 20.211-.068.069-15.983.068-15.982.31-.375.312-.375 17.745.115 17.744.116 2.25.436 2.248.437 1.852.55 1.852.55 1.72.901 1.72.9 1.512 1.189 1.512 1.188 1.322 1.657 1.322 1.657 1.05 2.117 1.05 2.117.574 2.248.575 2.25-.129 2.91-.128 2.91-.662 1.852-.661 1.852-.74 1.41-.74 1.41-1.456 1.633-1.456 1.633-.943.762-.944.762-1.256.782-1.257.782v.511l.992.407.992.407 1.588.775 1.587.775 1.588 1.188 1.587 1.188 1.377 1.625 1.378 1.625.945 1.799.945 1.799.543 2.064.542 2.063.028 3.44.028 3.44-.598 2.38-.597 2.382-1.15 2.297-1.148 2.296-1.046 1.416-1.045 1.415-1.493 1.364-1.492 1.364-1.916 1.051-1.915 1.051-1.985.672-1.984.671-2.25.424-2.248.423-.53.17-.528.168zm4.514-9.572 13.236-.096 1.939-.588 1.939-.588 1.5-.765 1.501-.765 1.24-1.279 1.242-1.279.788-1.508.79-1.509.452-2.034.453-2.035-.171-2.048-.17-2.049-.508-1.473-.507-1.473-.668-1.138-.668-1.137-1.268-1.243-1.27-1.243-1.72-.798-1.72-.8-1.587-.398-1.587-.4-2.91-.27-2.91-.271h-20.198l-.419.16-.418.16v26.578l.191.192.192.192zm-1.448-36.825 11.509-.098 1.984-.419 1.985-.418 1.933-.976 1.933-.975 1.161-1.292 1.162-1.292.586-1.508.586-1.509.12-2.7.118-2.699-.547-1.802-.547-1.802-.831-1.255-.832-1.255-1.077-.922-1.077-.922-1.477-.559-1.476-.559-1.984-.392-1.985-.391-10.777-.14-10.777-.14-.93.174-.931.175v23.48l.33.147.331.148z"
     id="path1" />
</svg>
